<svg xmlns="http://www.w3.org/2000/svg" viewBox="0 0 256 256">
  <circle cx="128" cy="128" r="128" fill="#2775CA"/>
  <path fill="#fff" d="M128 232a104 104 0 1 1 0-208 104 104 0 0 1 0 208Zm0-18a86 86 0 1 0 0-172 86 86 0 0 0 0 172Z"/>
  <path fill="#fff" d="M118 61h20v24c21 4 35 17 39 36h-31c-3-8-10-13-20-13-12 0-20 6-20 15 0 10 10 13 28 17 25 5 46 14 46 42 0 22-16 37-42 41v24h-20v-24c-25-4-42-19-45-41h31c3 10 12 16 25 16 14 0 22-6 22-16 0-9-8-13-29-17-24-5-45-14-45-41 0-20 15-35 41-39V61Z"/>
</svg>
